<svg id="Layer_5" enable-background="new 0 0 64 64" height="512" viewBox="0 0 64 64" width="512" xmlns="http://www.w3.org/2000/svg"><g><g><g><path d="m26 15v6h-2-2v-6h2z" fill="#b4dd7f"/></g><g><path d="m18 20v8h-2-2v-8h2z" fill="#b4dd7f"/></g><g><path d="m10 23v10h-2-2v-10h2z" fill="#b4dd7f"/></g><g><path d="m52 29.42c-.59.18-1.21.31-1.83.41l-7.17 7.17h-9l-6 8h-12l-14 16v1h56v-36.2c-1.64 1.67-3.69 2.93-6 3.62z" fill="#ff826e"/></g><g><path d="m48 2c7.73 0 14 6.27 14 14 0 3.81-1.53 7.27-4 9.8-1.64 1.67-3.69 2.93-6 3.62-.59.18-1.21.31-1.83.41-.71.11-1.43.17-2.17.17-7.73 0-14-6.27-14-14s6.27-14 14-14z" fill="#ffc729"/></g><g><circle cx="48" cy="16" fill="#fcd770" r="10"/></g></g><g><path d="m49 23v-2c1.654 0 3-1.346 3-3s-1.346-3-3-3h-2c-.552 0-1-.448-1-1s.448-1 1-1h3v1h2v-3h-3v-2h-2v2c-1.654 0-3 1.346-3 3s1.346 3 3 3h2c.552 0 1 .448 1 1s-.448 1-1 1h-3v-1h-2v3h3v2z"/><path d="m59 16c0-6.065-4.935-11-11-11s-11 4.935-11 11 4.935 11 11 11 11-4.935 11-11zm-20 0c0-4.963 4.037-9 9-9s9 4.037 9 9-4.037 9-9 9-9-4.037-9-9z"/><path d="m63 16c0-8.271-6.729-15-15-15s-15 6.729-15 15c0 6.368 3.995 11.808 9.606 13.98l-2.02 2.02h-8.04l-7 8h-11.983l-12.297 13.321 1.469 1.357 11.703-12.678h12.017l7-8h7.96l3.359-3.359c.916.202 1.863.314 2.833.339l-5.021 5.02h-9.086l-6 8h-11.954l-14.546 16.624v2.376h58v-36.836c2.474-2.676 4-6.241 4-10.164zm-28 0c0-7.168 5.832-13 13-13s13 5.832 13 13-5.832 13-13 13-13-5.832-13-13zm16 14.698v30.302h-4v-26.586l3.665-3.665c.111-.02.225-.029.335-.051zm-7.586 7.302 1.586-1.586v24.586h-4v-23zm-28.414 23h-4v-8.767l4-4.571zm2-15h4v15h-4zm6 0h4v15h-4zm6-.667 4-5.333v21h-4zm6-7.333h4v23h-4zm-26 16.519v6.481h-5.671zm44 6.481v-30.875c1.449-.515 2.794-1.244 4-2.153v33.028z"/><path d="m7 38h2v-4h2v-12h-2v-4h-2v4h-2v12h2zm0-14h2v8h-2z"/><path d="m15 33h2v-4h2v-10h-2v-4h-2v4h-2v10h2zm0-12h2v6h-2z"/><path d="m23 26h2v-4h2v-8h-2v-4h-2v4h-2v8h2zm0-10h2v4h-2z"/></g></g></svg>